<svg width="24" height="24" viewBox="0 0 24 24" fill="none" xmlns="http://www.w3.org/2000/svg">
<path d="M22.4884 4.3522C21.7408 3.02244 20.9295 2.77785 19.2777 2.68484C17.6275 2.57287 15.598 2.52637 12.0032 2.52637C8.40149 2.52637 6.37027 2.57287 4.72185 2.68311C3.07343 2.77785 2.26042 3.02072 1.50597 4.3522C0.736016 5.68024 0.339844 7.96771 0.339844 11.9949C0.339844 11.9983 0.339844 12.0001 0.339844 12.0001C0.339844 12.0035 0.339844 12.0052 0.339844 12.0052V12.0087C0.339844 16.0186 0.736016 18.3233 1.50597 19.6376C2.26042 20.9673 3.07171 21.2085 4.72013 21.3204C6.37027 21.4169 8.40149 21.4737 12.0032 21.4737C15.598 21.4737 17.6275 21.4169 19.2794 21.3222C20.9313 21.2102 21.7426 20.969 22.4901 19.6393C23.267 18.325 23.6597 16.0203 23.6597 12.0104C23.6597 12.0104 23.6597 12.0052 23.6597 12.0018C23.6597 12.0018 23.6597 11.9983 23.6597 11.9966C23.6597 7.96771 23.267 5.68024 22.4884 4.3522ZM8.55479 17.1675V6.83259L17.1672 12.0001L8.55479 17.1675Z" fill="#8199A7"/>
</svg>
