<svg width="24" height="24" viewBox="0 0 24 24" fill="none" xmlns="http://www.w3.org/2000/svg">
<path d="M17.885 7.53788C17.7428 7.18232 17.5828 6.93343 17.3161 6.66677C17.0494 6.4001 16.8005 6.2401 16.445 6.09788C16.1783 5.99121 15.7872 5.86677 15.0405 5.83121C14.2405 5.79565 14.0094 5.79565 11.9828 5.79565C9.97388 5.79565 9.72499 5.79565 8.92499 5.83121C8.1961 5.86677 7.78721 5.99121 7.52054 6.09788C7.16499 6.2401 6.9161 6.4001 6.64943 6.66677C6.38277 6.93343 6.22276 7.18232 6.08054 7.53788C5.97388 7.80454 5.84943 8.19565 5.81388 8.94232C5.77832 9.74232 5.77832 9.97343 5.77832 12.0001C5.77832 14.009 5.77832 14.2579 5.81388 15.0579C5.84943 15.7868 5.97388 16.1957 6.08054 16.4623C6.22276 16.8179 6.38277 17.0668 6.64943 17.3334C6.9161 17.6001 7.16499 17.7601 7.52054 17.9023C7.78721 18.009 8.17832 18.1334 8.92499 18.169C9.72499 18.2045 9.9561 18.2045 11.9828 18.2045C13.9917 18.2045 14.2405 18.2045 15.0405 18.169C15.7694 18.1334 16.1783 18.009 16.445 17.9023C16.8005 17.7601 17.0494 17.6001 17.3161 17.3334C17.5828 17.0668 17.7428 16.8179 17.885 16.4623C17.9917 16.1957 18.1161 15.8045 18.1517 15.0579C18.1872 14.2579 18.1872 14.0268 18.1872 12.0001C18.1872 9.99121 18.1872 9.74232 18.1517 8.94232C18.1161 8.21343 17.9917 7.80454 17.885 7.53788ZM12.0005 15.8757C9.84943 15.8757 8.12499 14.1334 8.12499 12.0001C8.12499 9.84899 9.86721 8.12454 12.0005 8.12454C14.1517 8.12454 15.8761 9.86677 15.8761 12.0001C15.8761 14.1512 14.1517 15.8757 12.0005 15.8757ZM16.0361 8.87121C15.5383 8.87121 15.1294 8.46232 15.1294 7.96454C15.1294 7.46677 15.5383 7.05788 16.0361 7.05788C16.5339 7.05788 16.9428 7.46677 16.9428 7.96454C16.9428 8.46232 16.5339 8.87121 16.0361 8.87121Z" fill="#8199A7"/>
<path d="M12 14.5245C13.3942 14.5245 14.5245 13.3942 14.5245 12C14.5245 10.6058 13.3942 9.47559 12 9.47559C10.6058 9.47559 9.47559 10.6058 9.47559 12C9.47559 13.3942 10.6058 14.5245 12 14.5245Z" fill="#8199A7"/>
<path d="M12 0C5.36889 0 0 5.36889 0 12C0 18.6311 5.36889 24 12 24C18.6311 24 24 18.6311 24 12C24 5.36889 18.6311 0 12 0ZM19.5022 15.1111C19.4667 15.9111 19.3422 16.4622 19.1467 16.9422C18.9511 17.44 18.7022 17.8667 18.2756 18.2756C17.8489 18.7022 17.44 18.9511 16.9422 19.1467C16.4622 19.3422 15.9111 19.4667 15.1111 19.5022C14.3111 19.5378 14.0444 19.5556 12 19.5556C9.95556 19.5556 9.68889 19.5556 8.88889 19.5022C8.08889 19.4667 7.53778 19.3422 7.05778 19.1467C6.56 18.9511 6.13333 18.7022 5.72444 18.2756C5.29778 17.8489 5.04889 17.44 4.85333 16.9422C4.65778 16.4622 4.53333 15.9111 4.49778 15.1111C4.44444 14.3111 4.44444 14.0444 4.44444 12C4.44444 9.95556 4.44444 9.68889 4.49778 8.88889C4.53333 8.08889 4.65778 7.53778 4.85333 7.05778C5.04889 6.56 5.29778 6.13333 5.72444 5.72444C6.15111 5.29778 6.56 5.04889 7.05778 4.85333C7.53778 4.65778 8.08889 4.53333 8.88889 4.49778C9.68889 4.44444 9.95556 4.44444 12 4.44444C14.0444 4.44444 14.3111 4.44444 15.1111 4.49778C15.9111 4.53333 16.4622 4.65778 16.9422 4.85333C17.44 5.04889 17.8667 5.29778 18.2756 5.72444C18.7022 6.15111 18.9511 6.56 19.1467 7.05778C19.3422 7.53778 19.4667 8.08889 19.5022 8.88889C19.5378 9.68889 19.5556 9.95556 19.5556 12C19.5556 14.0444 19.5556 14.3111 19.5022 15.1111Z" fill="#8199A7"/>
</svg>
